<?xml version="1.0" encoding="utf-8"?>
<svg xmlns="http://www.w3.org/2000/svg" xmlns:xlink="http://www.w3.org/1999/xlink" viewBox="0 0 1280 1280" preserveAspectRatio="none" version="1.1">
        <path style=" stroke:none;fill-rule:nonzero;fill:rgb(0%,0%,0%);fill-opacity:1;" d="M 980 403 C 936.101562 411.800781 931.101562 412.699219 807 437 C 671.101562 463.601562 499.199219 497.199219 449 507 C 377.601562 521 315.5 533.101562 265 543 C 192.5 557.101562 187.601562 558.101562 185.699219 559.199219 C 183.101562 560.5 180 566 180 569.199219 C 180 570.699219 180.5 573.101562 181.199219 574.601562 C 182 576.199219 214.398438 603.101562 263 642.199219 C 307.300781 677.898438 344.699219 708.5 346.300781 710.101562 L 349 713 L 349 805.300781 C 349 894.898438 349.101562 897.601562 351 900.699219 C 353.199219 904.398438 359.199219 906.699219 363.699219 905.601562 C 365.601562 905.101562 381.699219 889.699219 415.5 855.898438 C 442.5 829 465.101562 807 465.699219 807 C 466.699219 807 510 841.800781 626.300781 935.898438 C 635.601562 943.398438 643.898438 949.800781 644.800781 950.199219 C 648.199219 951.5 652.800781 950.898438 655.898438 948.699219 C 659 946.5 1029.5 418.101562 1032.800781 411.199219 C 1035.898438 404.800781 1030.699219 396.398438 1023 395.5 C 1021 395.300781 1002.199219 398.601562 980 403 Z M 1015.601562 411.5 C 1013.800781 412.898438 905.101562 476.300781 541.5 688.199219 L 422.5 757.5 L 412.898438 776 C 407.699219 786.199219 394 812.898438 382.601562 835.300781 C 368.5 863 361.5 875.898438 360.800781 875.199219 C 359.398438 873.800781 368.398438 715.398438 370 713.5 C 370.601562 712.800781 433.300781 682.898438 509.300781 647.199219 C 812.699219 504.5 970.601562 430.300781 991.5 420.398438 C 1011.898438 410.800781 1020.800781 407.5 1015.601562 411.5 Z M 1015.601562 411.5 "/>
</svg>